<?xml version="1.0" encoding="utf-8"?>
<!-- Generator: Adobe Illustrator 16.2.1, SVG Export Plug-In . SVG Version: 6.00 Build 0)  -->
<!DOCTYPE svg PUBLIC "-//W3C//DTD SVG 1.1//EN" "http://www.w3.org/Graphics/SVG/1.1/DTD/svg11.dtd">
<svg version="1.1" id="Layer_1" xmlns="http://www.w3.org/2000/svg" xmlns:xlink="http://www.w3.org/1999/xlink" x="0px" y="0px"
	 width="126.724px" height="64.77px" viewBox="0 0 126.724 64.77" enable-background="new 0 0 126.724 64.77" xml:space="preserve">
<path id="infinity-icon" d="M97.127,0c-15.298,0-25.301,12.397-34.26,21.779C53.909,12.397,44.619,0,29.321,0
	C11.856,0,0,13.923,0,32.385C0,50.848,11.856,64.77,29.321,64.77c15.497,0,25.438-12.091,34.322-21.213
	C72.527,52.679,81.63,64.77,97.127,64.77c17.464,0,29.321-13.922,29.321-32.385C126.448,13.923,114.591,0,97.127,0z M29.321,51.641
	c-10.397,0-16.63-7.845-16.63-19.256c0-11.412,6.233-19.256,16.63-19.256c10.784,0,17.295,9.699,25.956,20.076
	C47.346,42.594,40.443,51.641,29.321,51.641z M97.127,51.641c-11.122,0-17.961-10.049-25.894-19.438
	c8.661-10.377,15.11-19.074,25.894-19.074c10.397,0,16.63,7.844,16.63,19.256C113.757,43.797,107.524,51.641,97.127,51.641z"/>
</svg>
